<svg width="70" height="70" viewBox="0 0 70 70" fill="none" xmlns="http://www.w3.org/2000/svg">
<circle cx="35" cy="35" r="34" fill="#FBFAFA" stroke="#0C2F45" stroke-width="2"/>
<path d="M25.4 50V46.52L36.52 35.96C37.4533 35.08 38.1467 34.3067 38.6 33.64C39.0533 32.9733 39.3467 32.36 39.48 31.8C39.64 31.2133 39.72 30.6667 39.72 30.16C39.72 28.88 39.28 27.8933 38.4 27.2C37.52 26.48 36.2267 26.12 34.52 26.12C33.16 26.12 31.92 26.36 30.8 26.84C29.7067 27.32 28.76 28.0533 27.96 29.04L24.32 26.24C25.4133 24.7733 26.88 23.64 28.72 22.84C30.5867 22.0133 32.6667 21.6 34.96 21.6C36.9867 21.6 38.7467 21.9333 40.24 22.6C41.76 23.24 42.92 24.16 43.72 25.36C44.5467 26.56 44.96 27.9867 44.96 29.64C44.96 30.5467 44.84 31.4533 44.6 32.36C44.36 33.24 43.9067 34.1733 43.24 35.16C42.5733 36.1467 41.6 37.2533 40.32 38.48L30.76 47.56L29.68 45.6H46.04V50H25.4Z" fill="#00B67A"/>
</svg>
