<svg width="70" height="70" viewBox="0 0 70 70" fill="none" xmlns="http://www.w3.org/2000/svg">
<circle cx="35" cy="35" r="34" fill="#FBFAFA" stroke="#0C2F45" stroke-width="2"/>
<path d="M34.56 50.4C32.5867 50.4 30.6533 50.12 28.76 49.56C26.8933 48.9733 25.32 48.1733 24.04 47.16L26.28 43.12C27.2933 43.9467 28.52 44.6133 29.96 45.12C31.4 45.6267 32.9067 45.88 34.48 45.88C36.3467 45.88 37.8 45.5067 38.84 44.76C39.88 43.9867 40.4 42.9467 40.4 41.64C40.4 40.36 39.92 39.3467 38.96 38.6C38 37.8533 36.4533 37.48 34.32 37.48H31.76V33.92L39.76 24.4L40.44 26.36H25.4V22H44.48V25.48L36.48 35L33.76 33.4H35.32C38.76 33.4 41.3333 34.1733 43.04 35.72C44.7733 37.24 45.64 39.2 45.64 41.6C45.64 43.1733 45.24 44.6267 44.44 45.96C43.64 47.2933 42.4133 48.3733 40.76 49.2C39.1333 50 37.0667 50.4 34.56 50.4Z" fill="#00B67A"/>
</svg>
