<svg width="50" height="44" viewBox="0 0 50 44" fill="none" xmlns="http://www.w3.org/2000/svg">
<path d="M19.3552 44C30.0449 44 38.7105 35.5194 38.7105 25.0581C38.7105 14.5969 30.0449 6.11633 19.3552 6.11633C8.66564 6.11633 0 14.5969 0 25.0581C0 35.5194 8.66564 44 19.3552 44Z" fill="#B7FF7A"/>
<path d="M19.5742 39.6988L19.3287 39.2895C15.5787 33.0367 5.61355 19.7673 5.51289 19.634L5.36914 19.4429L8.7642 16.1593L19.5111 23.5033C26.2777 14.9103 32.5904 9.0082 36.7081 5.56161C41.2126 1.79138 44.1448 0.0556925 44.1744 0.0390599L44.241 0H50L49.4499 0.479447C35.302 12.8118 19.9672 39.023 19.8144 39.2863L19.5742 39.6988Z" fill="#00B67A"/>
</svg>
