<svg width="100" height="100" viewBox="0 0 100 100" fill="none" xmlns="http://www.w3.org/2000/svg">
<rect width="100" height="100" rx="5" fill="#0C2F45"/>
<path fill-rule="evenodd" clip-rule="evenodd" d="M36.1134 41.9975C36.3949 41.513 36.2279 40.8935 35.7402 40.6138L21.1129 32.2234C20.6253 31.9436 20.0018 32.1096 19.7203 32.5941C19.4387 33.0786 19.6058 33.6981 20.0934 33.9778L34.7207 42.3683C35.2083 42.648 35.8319 42.482 36.1134 41.9975Z" fill="#B7FF7A"/>
<mask id="mask0_110_1426" style="mask-type:luminance" maskUnits="userSpaceOnUse" x="15" y="15" width="70" height="70">
<path d="M15 15H85V85H15V15Z" fill="white"/>
</mask>
<g mask="url(#mask0_110_1426)">
<path fill-rule="evenodd" clip-rule="evenodd" d="M50.0004 84.9993C50.4606 84.9993 50.8337 84.5371 50.8337 83.967V66.8649C50.8337 66.2948 50.4606 65.8326 50.0004 65.8326C49.5401 65.8326 49.1671 66.2948 49.1671 66.8649V83.967C49.1671 84.5371 49.5401 84.9993 50.0004 84.9993Z" fill="#B7FF7A"/>
</g>
<path fill-rule="evenodd" clip-rule="evenodd" d="M63.8869 41.9975C64.1684 42.482 64.792 42.648 65.2796 42.3683L79.9069 33.9778C80.3945 33.6981 80.5616 33.0786 80.2801 32.5941C79.9985 32.1096 79.375 31.9436 78.8874 32.2234L64.2601 40.6138C63.7725 40.8935 63.6054 41.513 63.8869 41.9975Z" fill="#B7FF7A"/>
<path fill-rule="evenodd" clip-rule="evenodd" d="M50 67.9185C50.3686 67.9185 50.7092 67.7232 50.8935 67.4064L65.695 41.9548C65.8793 41.6379 65.8793 41.2475 65.695 40.9306C65.5107 40.6137 65.1702 40.4185 64.8016 40.4185H35.1983C34.8297 40.4185 34.4891 40.6137 34.3048 40.9306C34.1205 41.2475 34.1205 41.6379 34.3048 41.9548L49.1065 67.4064C49.2908 67.7232 49.6314 67.9185 50 67.9185ZM36.9852 42.4669H63.0147L50 64.8458L36.9852 42.4669Z" fill="#B7FF7A"/>
<mask id="mask1_110_1426" style="mask-type:luminance" maskUnits="userSpaceOnUse" x="15" y="15" width="70" height="70">
<path d="M15 15H85V85H15V15Z" fill="white"/>
</mask>
<g mask="url(#mask1_110_1426)">
<path fill-rule="evenodd" clip-rule="evenodd" d="M19.7207 67.4045C19.9037 67.7212 20.2419 67.9163 20.6078 67.9163H79.3925C79.7584 67.9163 80.0966 67.7212 80.2796 67.4045C80.4626 67.0878 80.4626 66.6976 80.2796 66.381L50.8873 15.5114C50.7043 15.1947 50.3661 14.9996 50.0002 14.9996C49.6342 14.9996 49.296 15.1947 49.1131 15.5114L19.7207 66.381C19.5378 66.6976 19.5378 67.0878 19.7207 67.4045ZM22.382 65.8692L27.8187 56.4599L50.0002 18.0702L77.6183 65.8692H22.382Z" fill="#B7FF7A"/>
<path fill-rule="evenodd" clip-rule="evenodd" d="M49.488 84.8619C49.8049 85.0451 50.1954 85.0451 50.5123 84.8619L79.9047 67.8746C80.2216 67.6914 80.4168 67.3529 80.4168 66.9866V33.012C80.4168 32.6456 80.2216 32.3071 79.9047 32.1239L50.5123 15.1366C50.1954 14.9535 49.8049 14.9535 49.488 15.1366L20.0957 32.1239C19.7787 32.3071 19.5835 32.6456 19.5835 33.012V66.9866C19.5835 67.3529 19.7787 67.6914 20.0957 67.8746L49.488 84.8619ZM21.6322 66.3946V33.604L50.0002 17.2087L78.3682 33.604V66.3946L50.0002 82.7899L21.6322 66.3946Z" fill="#B7FF7A"/>
</g>
</svg>
