<svg width="80" height="60" viewBox="0 0 80 60" fill="none" xmlns="http://www.w3.org/2000/svg">
<path fill-rule="evenodd" clip-rule="evenodd" d="M47.5005 60C45.8116 60 44.121 59.6551 42.526 58.9585L23.6758 50.7344C21.4288 49.7527 18.9922 49.5393 16.6276 50.1164L12.7 51.0742C12.2054 51.1954 11.7153 50.8625 11.6039 50.3332C11.4913 49.8038 11.8012 49.2764 12.2941 49.1568L16.2221 48.199C18.9543 47.5314 21.7703 47.7791 24.3657 48.9128L43.2169 57.1368C46.1953 58.4361 49.5628 58.32 52.4571 56.8159L76.602 44.2825C77.2747 43.9341 77.7767 43.3248 78.0168 42.565C78.2586 41.8069 78.2077 40.9942 77.8738 40.2772C77.3999 39.2646 76.4504 38.6331 75.3961 38.6331C75.15 38.6329 74.8984 38.6707 74.6503 38.7441L54.3831 44.8065C53.8965 44.9517 53.3905 44.6462 53.2553 44.1221C53.1201 43.5995 53.4048 43.0567 53.8914 42.9116L74.1611 36.8488C74.5697 36.7276 74.9843 36.668 75.3961 36.668C77.1487 36.6678 78.7245 37.7128 79.5117 39.398C80.0669 40.5895 80.1508 41.9401 79.7518 43.2001C79.3514 44.46 78.5162 45.4742 77.3999 46.053L53.2553 58.588C51.4442 59.5271 49.4736 60 47.5005 60Z" fill="#B7FF7A"/>
<path fill-rule="evenodd" clip-rule="evenodd" d="M50.9068 48.7435C50.4967 48.7435 50.078 48.6787 49.6646 48.5422L34.6625 43.5977C34.1796 43.4389 33.907 42.8893 34.0549 42.3703C34.2031 41.8512 34.7164 41.5593 35.1998 41.7181L50.204 46.6624C51.4128 47.0619 52.6861 46.3739 53.1075 45.0952C53.1982 44.8235 53.2441 44.5403 53.2441 44.2483C53.2447 44.1561 53.2378 44.0656 53.2283 43.9769C53.1459 43.1898 52.729 42.4915 52.1072 42.0903L33.6894 34.0436C29.6053 32.2595 25.1289 31.5579 20.7462 32.0155L12.5711 32.8657C12.0688 32.9168 11.6199 32.5225 11.5706 31.9813C11.5213 31.4417 11.8903 30.9604 12.3942 30.9091L20.5688 30.057C25.2466 29.5705 30.0237 30.3184 34.3793 32.222L52.8583 40.2958C52.8948 40.3112 52.931 40.3301 52.9659 40.3522C54.1206 41.0571 54.8996 42.3276 55.0476 43.7498C55.0673 43.9068 55.0761 44.0776 55.0761 44.2483C55.0767 44.7672 54.9935 45.2727 54.8329 45.7558C54.2272 47.5911 52.6303 48.7436 50.9068 48.7435Z" fill="#B7FF7A"/>
<path fill-rule="evenodd" clip-rule="evenodd" d="M10.9968 54.2155H7.61631C7.11036 54.2155 6.69972 53.7752 6.69972 53.2322C6.70033 52.6894 7.11 52.2489 7.61569 52.2489L10.9968 52.2487C11.3196 52.2487 11.5801 51.9689 11.5801 51.6223L11.5807 30.95C11.5807 30.6052 11.3194 30.3236 10.9965 30.3236L7.6163 30.3235C7.11035 30.3235 6.69971 29.8831 6.69971 29.3402C6.70032 28.7971 7.10999 28.3568 7.61568 28.3568L10.9968 28.3567C12.3292 28.3567 13.4121 29.5212 13.4121 30.9502L13.4126 51.6222C13.4126 53.053 12.3291 54.2157 10.9968 54.2155Z" fill="#B7FF7A"/>
<path fill-rule="evenodd" clip-rule="evenodd" d="M1.832 54.2275H6.16854C6.46127 54.2275 6.69967 53.9732 6.69967 53.6574L6.70029 28.9116C6.70029 28.5959 6.46112 28.3415 6.16844 28.3415L1.832 28.3414L1.832 54.2275ZM6.16854 56.1943H0.916026C0.409361 56.1943 0 55.754 0 55.2111L5.1361e-05 27.3579C5.1361e-05 26.8149 0.408744 26.3746 0.916027 26.3746L6.16854 26.3745C7.47316 26.3745 8.53162 27.5117 8.53162 28.9117L8.53224 53.6573C8.53224 55.0571 7.47244 56.1945 6.16854 56.1943Z" fill="#B7FF7A"/>
<path fill-rule="evenodd" clip-rule="evenodd" d="M45.7831 5.61007C41.9202 5.61007 38.7762 8.98386 38.7762 13.1326C38.7766 17.2796 41.9202 20.6533 45.7827 20.6533C49.6459 20.6532 52.7894 17.2797 52.7894 13.1326C52.7896 8.98386 49.6455 5.61023 45.7831 5.61007ZM45.7831 22.6199C40.9105 22.6199 36.9443 18.3637 36.9443 13.1326C36.9447 7.8995 40.9104 3.64331 45.7827 3.64331C50.657 3.6432 54.6213 7.89969 54.6213 13.1326C54.6215 18.3636 50.6569 22.62 45.7831 22.6199Z" fill="#B7FF7A"/>
<path fill-rule="evenodd" clip-rule="evenodd" d="M26.1455 1.96683C25.8357 1.96683 25.5806 2.23829 25.5806 2.57123L25.581 23.6906C25.581 24.0235 25.835 24.295 26.1451 24.295L65.4207 24.2949C65.7327 24.2949 65.9851 24.0236 65.9851 23.6906L65.9853 2.57109C65.9853 2.23821 65.7323 1.96681 65.4206 1.96681L26.1455 1.96683ZM65.4208 26.2617H26.1455C24.8238 26.2617 23.7502 25.1077 23.7502 23.6907L23.7504 2.5711C23.7504 1.15249 24.8238 0 26.1451 0H65.4207C66.7424 0 67.8171 1.1525 67.8171 2.57121L67.8173 23.6906C67.8173 25.1075 66.7423 26.2618 65.4208 26.2617Z" fill="#B7FF7A"/>
<path fill-rule="evenodd" clip-rule="evenodd" d="M24.665 8.24107C24.159 8.24107 23.7502 7.80068 23.7502 7.25782C23.7504 6.71468 24.1589 6.27441 24.6647 6.27441C27.3828 6.27424 29.5929 3.9012 29.5929 0.98512C29.5934 0.442148 30.0014 0.00170901 30.5088 0.00170901C31.0145 0.00159869 31.4232 0.442202 31.4232 0.98512C31.4232 4.98526 28.3922 8.24122 24.665 8.24107Z" fill="#B7FF7A"/>
<path fill-rule="evenodd" clip-rule="evenodd" d="M66.9012 8.24106C63.1736 8.24106 60.1426 4.98537 60.1426 0.98512C60.143 0.442148 60.5529 0.00170901 61.0586 0.00170901C61.5642 0.00159869 61.9745 0.442202 61.9745 0.98512C61.9749 3.90119 64.1833 6.27441 66.9011 6.27441C67.4071 6.27424 67.817 6.71485 67.817 7.25782C67.8172 7.80068 67.4067 8.24123 66.9012 8.24106Z" fill="#B7FF7A"/>
<path fill-rule="evenodd" clip-rule="evenodd" d="M30.5093 26.2618C30.002 26.2618 29.5929 25.8214 29.5929 25.2785C29.5934 22.3623 27.3824 19.9893 24.6647 19.9893C24.159 19.9893 23.7502 19.5488 23.7502 19.0059C23.7504 18.4628 24.1589 18.0225 24.6647 18.0225C28.3925 18.0225 31.4232 21.2783 31.4232 25.2785C31.4232 25.8213 31.0145 26.2619 30.5093 26.2618Z" fill="#B7FF7A"/>
<path fill-rule="evenodd" clip-rule="evenodd" d="M61.059 26.2618C60.5531 26.2618 60.1426 25.8214 60.1426 25.2785C60.143 21.2783 63.1736 18.0225 66.9011 18.0225C67.407 18.0225 67.817 18.463 67.817 19.0059C67.8172 19.5487 67.4067 19.9893 66.9011 19.9893C64.1833 19.9893 61.9745 22.3624 61.9745 25.2785C61.9749 25.8213 61.5642 26.2619 61.059 26.2618Z" fill="#B7FF7A"/>
</svg>
