<svg width="270" height="44" viewBox="0 0 270 44" fill="none" xmlns="http://www.w3.org/2000/svg">
<path fill-rule="evenodd" clip-rule="evenodd" d="M12.8228 17.084C12.9937 16.7864 12.8923 16.4059 12.5961 16.2341L3.71257 11.0799C3.41642 10.9081 3.03773 11.0101 2.86675 11.3077C2.69577 11.6053 2.79724 11.9858 3.09339 12.1577L11.9769 17.3118C12.2731 17.4836 12.6518 17.3817 12.8228 17.084Z" fill="#B7FF7A"/>
<mask id="mask0_37_139" style="mask-type:luminance" maskUnits="userSpaceOnUse" x="0" y="0" width="43" height="44">
<path d="M0 0.5H42.5129V43.5H0V0.5Z" fill="white"/>
</mask>
<g mask="url(#mask0_37_139)">
<path fill-rule="evenodd" clip-rule="evenodd" d="M21.2566 43.4995C21.5361 43.4995 21.7627 43.2156 21.7627 42.8654V32.3598C21.7627 32.0096 21.5361 31.7257 21.2566 31.7257C20.9771 31.7257 20.7505 32.0096 20.7505 32.3598V42.8654C20.7505 43.2156 20.9771 43.4995 21.2566 43.4995Z" fill="#B7FF7A"/>
</g>
<path fill-rule="evenodd" clip-rule="evenodd" d="M29.6904 17.084C29.8613 17.3817 30.24 17.4836 30.5362 17.3118L39.4197 12.1577C39.7159 11.9858 39.8173 11.6053 39.6464 11.3077C39.4754 11.0101 39.0967 10.9081 38.8005 11.0799L29.917 16.2341C29.6208 16.4059 29.5194 16.7864 29.6904 17.084Z" fill="#B7FF7A"/>
<path fill-rule="evenodd" clip-rule="evenodd" d="M21.2564 33.0071C21.4803 33.0071 21.6871 32.8872 21.7991 32.6925L30.7885 17.058C30.9004 16.8633 30.9004 16.6235 30.7885 16.4288C30.6765 16.2341 30.4697 16.1142 30.2458 16.1142H12.2669C12.0431 16.1142 11.8363 16.2341 11.7243 16.4288C11.6124 16.6235 11.6124 16.8633 11.7243 17.058L20.7138 32.6925C20.8257 32.8872 21.0326 33.0071 21.2564 33.0071ZM13.3522 17.3725H29.1606L21.2564 31.1196L13.3522 17.3725Z" fill="#B7FF7A"/>
<mask id="mask1_37_139" style="mask-type:luminance" maskUnits="userSpaceOnUse" x="0" y="0" width="43" height="44">
<path d="M0 0.5H42.5129V43.5H0V0.5Z" fill="white"/>
</mask>
<g mask="url(#mask1_37_139)">
<path fill-rule="evenodd" clip-rule="evenodd" d="M2.86704 32.6912C2.97816 32.8858 3.18354 33.0056 3.40579 33.0056H39.1073C39.3296 33.0056 39.535 32.8858 39.6461 32.6912C39.7572 32.4967 39.7572 32.257 39.6461 32.0625L21.7953 0.814034C21.6842 0.619499 21.4788 0.49966 21.2566 0.49966C21.0343 0.49966 20.8289 0.619499 20.7178 0.814034L2.86704 32.0625C2.75591 32.257 2.75591 32.4967 2.86704 32.6912ZM4.48331 31.7481L7.78516 25.9682L21.2566 2.38589L38.0298 31.7481H4.48331Z" fill="#B7FF7A"/>
<path fill-rule="evenodd" clip-rule="evenodd" d="M20.9455 43.4151C21.138 43.5276 21.3751 43.5276 21.5676 43.4151L39.4184 32.9801C39.6109 32.8675 39.7295 32.6596 39.7295 32.4346V11.5645C39.7295 11.3394 39.6109 11.1315 39.4184 11.019L21.5676 0.5839C21.3751 0.471382 21.138 0.471382 20.9455 0.5839L3.09474 11.019C2.90226 11.1315 2.78369 11.3394 2.78369 11.5645V32.4346C2.78369 32.6596 2.90226 32.8675 3.09474 32.9801L20.9455 43.4151ZM4.0279 32.0709V11.9281L21.2566 1.85672L38.4852 11.9281V32.0709L21.2566 42.1423L4.0279 32.0709Z" fill="#B7FF7A"/>
</g>
<path d="M270 12.0493V32.2563H265.172V12.0493H270Z" fill="white"/>
<path d="M248.3 32.2563H243.111L249.851 12.0493H256.28L263.021 32.2563H257.831L253.139 17.1405H252.983L248.3 32.2563ZM247.608 24.3038H258.455V28.0136H247.608V24.3038Z" fill="white"/>
<path d="M212.646 32.2571V17.1019H217.182V19.8843H217.348C217.66 18.9634 218.187 18.2365 218.928 17.7037C219.67 17.1709 220.554 16.9045 221.582 16.9045C222.622 16.9045 223.513 17.1742 224.254 17.7136C224.996 18.253 225.467 18.9765 225.669 19.8843H225.825C226.105 18.9831 226.651 18.2629 227.464 17.7235C228.277 17.1775 229.236 16.9045 230.342 16.9045C231.759 16.9045 232.91 17.365 233.795 18.2859C234.679 19.2002 235.121 20.4566 235.121 22.055V32.2571H230.351V23.16C230.351 22.4036 230.159 21.828 229.776 21.4334C229.392 21.0321 228.895 20.8315 228.283 20.8315C227.626 20.8315 227.109 21.0486 226.732 21.4827C226.362 21.9102 226.176 22.4858 226.176 23.2094V32.2571H221.591V23.1107C221.591 22.4069 221.403 21.851 221.026 21.4432C220.648 21.0354 220.151 20.8315 219.533 20.8315C219.117 20.8315 218.749 20.9334 218.431 21.1374C218.112 21.3347 217.862 21.6175 217.68 21.9859C217.504 22.3542 217.416 22.7884 217.416 23.2883V32.2571H212.646Z" fill="white"/>
<path d="M204.849 25.7149V17.1013H209.61V32.2566H205.064V29.4347H204.908C204.576 30.3622 204.01 31.0989 203.211 31.6448C202.417 32.1842 201.458 32.4539 200.333 32.4539C199.312 32.4539 198.414 32.2171 197.64 31.7435C196.867 31.2699 196.265 30.6088 195.836 29.7603C195.407 28.9052 195.189 27.9053 195.182 26.7608V17.1013H199.952V25.8136C199.959 26.6358 200.174 27.2837 200.596 27.7573C201.019 28.231 201.594 28.4678 202.323 28.4678C202.798 28.4678 203.224 28.3625 203.601 28.152C203.984 27.935 204.287 27.6225 204.508 27.2147C204.736 26.8003 204.849 26.3004 204.849 25.7149Z" fill="white"/>
<path d="M192.748 17.1012V20.6532H183.296V17.1012H192.748ZM185.276 13.4702H190.046V27.4908C190.046 27.7868 190.092 28.0269 190.183 28.2111C190.28 28.3887 190.42 28.5169 190.602 28.5959C190.784 28.6682 191.002 28.7044 191.256 28.7044C191.438 28.7044 191.63 28.6879 191.831 28.6551C192.04 28.6156 192.196 28.5827 192.3 28.5564L193.022 32.0393C192.794 32.1051 192.472 32.1873 192.056 32.286C191.646 32.3847 191.155 32.4472 190.583 32.4735C189.464 32.5261 188.505 32.3945 187.705 32.0788C186.912 31.7565 186.304 31.2566 185.881 30.5791C185.465 29.9016 185.263 29.0497 185.276 28.0236V13.4702Z" fill="white"/>
<path d="M171.651 23.6139V32.2571H166.881V17.1019H171.417V19.8843H171.583C171.914 18.9568 172.48 18.23 173.28 17.7037C174.08 17.1709 175.033 16.9045 176.138 16.9045C177.192 16.9045 178.105 17.1446 178.879 17.6248C179.66 18.0984 180.265 18.7628 180.694 19.6179C181.129 20.4664 181.344 21.4597 181.338 22.5976V32.2571H176.567V23.5448C176.574 22.7029 176.363 22.0451 175.933 21.5715C175.511 21.0979 174.922 20.8611 174.168 20.8611C173.667 20.8611 173.225 20.9729 172.841 21.1966C172.464 21.4136 172.171 21.7261 171.963 22.1339C171.761 22.5417 171.657 23.035 171.651 23.6139Z" fill="white"/>
<path d="M155.009 32.5137C154.053 32.5137 153.204 32.3525 152.463 32.0302C151.728 31.7013 151.146 31.208 150.717 30.5502C150.294 29.8858 150.083 29.0537 150.083 28.0539C150.083 27.212 150.229 26.5015 150.522 25.9227C150.815 25.3439 151.218 24.8735 151.731 24.5118C152.245 24.15 152.837 23.877 153.507 23.6928C154.177 23.5021 154.892 23.3738 155.653 23.308C156.505 23.2291 157.191 23.1469 157.711 23.0614C158.232 22.9693 158.609 22.841 158.843 22.6766C159.083 22.5055 159.204 22.2654 159.204 21.9563V21.907C159.204 21.4005 159.031 21.0091 158.687 20.7328C158.342 20.4566 157.877 20.3184 157.292 20.3184C156.661 20.3184 156.154 20.4566 155.77 20.7328C155.386 21.0091 155.142 21.3906 155.038 21.8774L150.639 21.7195C150.769 20.7986 151.104 19.9764 151.644 19.2528C152.19 18.5227 152.938 17.9504 153.887 17.536C154.843 17.115 155.991 16.9045 157.331 16.9045C158.287 16.9045 159.168 17.0197 159.974 17.2499C160.781 17.4735 161.483 17.8024 162.081 18.2365C162.68 18.6641 163.141 19.1903 163.467 19.8152C163.798 20.4401 163.964 21.1538 163.964 21.9563V32.2571H159.477V30.1456H159.36C159.093 30.6587 158.752 31.0929 158.336 31.4481C157.926 31.8033 157.441 32.0697 156.882 32.2473C156.329 32.4249 155.705 32.5137 155.009 32.5137ZM156.482 29.3563C156.996 29.3563 157.458 29.2511 157.867 29.0406C158.284 28.8301 158.615 28.5407 158.862 28.1723C159.109 27.7974 159.233 27.3632 159.233 26.8699V25.4294C159.096 25.5017 158.931 25.5675 158.736 25.6267C158.547 25.6859 158.339 25.7418 158.111 25.7944C157.884 25.8471 157.649 25.8931 157.409 25.9326C157.168 25.972 156.937 26.0082 156.716 26.0411C156.268 26.1135 155.884 26.2253 155.565 26.3766C155.253 26.5279 155.012 26.7252 154.843 26.9686C154.681 27.2054 154.599 27.4882 154.599 27.8171C154.599 28.317 154.775 28.6985 155.126 28.9616C155.484 29.2248 155.936 29.3563 156.482 29.3563Z" fill="white"/>
<path d="M142.989 25.7149V17.1013H147.749V32.2566H143.203V29.4347H143.047C142.716 30.3622 142.15 31.0989 141.35 31.6448C140.556 32.1842 139.597 32.4539 138.472 32.4539C137.451 32.4539 136.554 32.2171 135.78 31.7435C135.006 31.2699 134.404 30.6088 133.975 29.7603C133.546 28.9052 133.328 27.9053 133.322 26.7608V17.1013H138.092V25.8136C138.098 26.6358 138.313 27.2837 138.736 27.7573C139.158 28.231 139.734 28.4678 140.462 28.4678C140.937 28.4678 141.363 28.3625 141.74 28.152C142.124 27.935 142.426 27.6225 142.647 27.2147C142.875 26.8003 142.989 26.3004 142.989 25.7149Z" fill="white"/>
<path d="M119.257 24.9943H123.159L124.817 27.1354L126.993 29.6613L130.339 33.8349H125.969L123.627 31.0031L122.242 28.9903L119.257 24.9943ZM130.475 22.1527C130.475 24.376 130.053 26.2605 129.207 27.8063C128.362 29.3521 127.217 30.5263 125.773 31.3287C124.336 32.1312 122.723 32.5325 120.935 32.5325C119.14 32.5325 117.524 32.1279 116.087 31.3189C114.65 30.5098 113.508 29.3357 112.663 27.7965C111.824 26.2507 111.404 24.3694 111.404 22.1527C111.404 19.9294 111.824 18.0449 112.663 16.4991C113.508 14.9533 114.65 13.7792 116.087 12.9767C117.524 12.1742 119.14 11.7729 120.935 11.7729C122.723 11.7729 124.336 12.1742 125.773 12.9767C127.217 13.7792 128.362 14.9533 129.207 16.4991C130.053 18.0449 130.475 19.9294 130.475 22.1527ZM125.539 22.1527C125.539 20.8372 125.354 19.7255 124.983 18.8178C124.619 17.91 124.092 17.2227 123.403 16.7556C122.72 16.2886 121.897 16.0551 120.935 16.0551C119.979 16.0551 119.156 16.2886 118.467 16.7556C117.778 17.2227 117.248 17.91 116.877 18.8178C116.513 19.7255 116.331 20.8372 116.331 22.1527C116.331 23.4683 116.513 24.5799 116.877 25.4877C117.248 26.3954 117.778 27.0828 118.467 27.5498C119.156 28.0168 119.979 28.2503 120.935 28.2503C121.897 28.2503 122.72 28.0168 123.403 27.5498C124.092 27.0828 124.619 26.3954 124.983 25.4877C125.354 24.5799 125.539 23.4683 125.539 22.1527Z" fill="white"/>
<path d="M108.8 22.1527C108.8 24.376 108.377 26.2605 107.532 27.8063C106.686 29.3521 105.542 30.5262 104.098 31.3287C102.661 32.1312 101.048 32.5325 99.2595 32.5325C97.4645 32.5325 95.8485 32.1279 94.4112 31.3189C92.974 30.5098 91.8327 29.3357 90.9873 27.7965C90.1483 26.2507 89.7289 24.3694 89.7289 22.1527C89.7289 19.9294 90.1483 18.0449 90.9873 16.4991C91.8327 14.9533 92.974 13.7792 94.4112 12.9767C95.8485 12.1742 97.4645 11.7729 99.2595 11.7729C101.048 11.7729 102.661 12.1742 104.098 12.9767C105.542 13.7792 106.686 14.9533 107.532 16.4991C108.377 18.0449 108.8 19.9294 108.8 22.1527ZM103.864 22.1527C103.864 20.8372 103.678 19.7255 103.308 18.8178C102.944 17.91 102.417 17.2227 101.727 16.7556C101.045 16.2886 100.222 16.0551 99.2595 16.0551C98.3035 16.0551 97.4808 16.2886 96.7915 16.7556C96.1021 17.2227 95.5721 17.91 95.2014 18.8178C94.8372 19.7255 94.6551 20.8372 94.6551 22.1527C94.6551 23.4683 94.8372 24.5799 95.2014 25.4877C95.5721 26.3954 96.1021 27.0828 96.7915 27.5498C97.4808 28.0168 98.3035 28.2503 99.2595 28.2503C100.222 28.2503 101.045 28.0168 101.727 27.5498C102.417 27.0828 102.944 26.3954 103.308 25.4877C103.678 24.5799 103.864 23.4683 103.864 22.1527Z" fill="white"/>
<path d="M71.7557 32.2563V12.0493H80.0084C81.5042 12.0493 82.7951 12.3223 83.8811 12.8683C84.9737 13.4076 85.8158 14.1838 86.4076 15.1968C86.9994 16.2032 87.2953 17.3971 87.2953 18.7784C87.2953 20.1795 86.9929 21.3701 86.3881 22.3501C85.7833 23.3237 84.9249 24.067 83.8128 24.58C82.7008 25.0865 81.3839 25.3398 79.8621 25.3398H74.6432V21.4917H78.9646C79.693 21.4917 80.3011 21.3964 80.7888 21.2056C81.2831 21.0083 81.657 20.7123 81.9106 20.3176C82.1643 19.9164 82.2911 19.4033 82.2911 18.7784C82.2911 18.1535 82.1643 17.6372 81.9106 17.2293C81.657 16.8149 81.2831 16.5058 80.7888 16.3019C80.2946 16.0914 79.6865 15.9861 78.9646 15.9861H76.5844V32.2563H71.7557ZM83.0032 23.0211L87.9782 32.2563H82.7105L77.8331 23.0211H83.0032Z" fill="white"/>
<path d="M53.8356 32.2563V12.0493H62.0882C63.584 12.0493 64.8749 12.3453 65.961 12.9373C67.0535 13.5227 67.8957 14.3417 68.4875 15.3941C69.0793 16.44 69.3752 17.6569 69.3752 19.0448C69.3752 20.4393 69.0728 21.6595 68.468 22.7053C67.8697 23.7446 67.0145 24.5504 65.9024 25.1227C64.7904 25.695 63.4702 25.9811 61.9419 25.9811H56.8498V22.1331H61.0445C61.7728 22.1331 62.3809 22.0048 62.8686 21.7483C63.3629 21.4917 63.7368 21.1333 63.9905 20.6728C64.2441 20.2058 64.3709 19.6631 64.3709 19.0448C64.3709 18.4199 64.2441 17.8805 63.9905 17.4267C63.7368 16.9662 63.3629 16.611 62.8686 16.3611C62.3744 16.1111 61.7663 15.9861 61.0445 15.9861H58.6643V32.2563H53.8356Z" fill="white"/>
</svg>
