<svg width="70" height="70" viewBox="0 0 70 70" fill="none" xmlns="http://www.w3.org/2000/svg">
<path fill-rule="evenodd" clip-rule="evenodd" d="M21.1136 26.9974C21.3952 26.5129 21.2281 25.8934 20.7405 25.6137L6.11319 17.2232C5.62556 16.9435 5.00203 17.1095 4.7205 17.594C4.43897 18.0785 4.60604 18.698 5.09367 18.9777L19.721 27.3682C20.2086 27.6479 20.8321 27.4819 21.1136 26.9974Z" fill="#B7FF7A"/>
<mask id="mask0_45_707" style="mask-type:luminance" maskUnits="userSpaceOnUse" x="0" y="0" width="70" height="70">
<path d="M0 0H70V70H0V0Z" fill="white"/>
</mask>
<g mask="url(#mask0_45_707)">
<path fill-rule="evenodd" clip-rule="evenodd" d="M35.0003 69.9993C35.4606 69.9993 35.8337 69.5371 35.8337 68.967V51.8649C35.8337 51.2948 35.4606 50.8326 35.0003 50.8326C34.5401 50.8326 34.167 51.2948 34.167 51.8649V68.967C34.167 69.5371 34.5401 69.9993 35.0003 69.9993Z" fill="#B7FF7A"/>
</g>
<path fill-rule="evenodd" clip-rule="evenodd" d="M48.887 26.9974C49.1685 27.4819 49.7921 27.6479 50.2797 27.3682L64.907 18.9777C65.3946 18.698 65.5617 18.0785 65.2801 17.594C64.9986 17.1095 64.3751 16.9435 63.8875 17.2232L49.2602 25.6137C48.7725 25.8934 48.6055 26.5129 48.887 26.9974Z" fill="#B7FF7A"/>
<path fill-rule="evenodd" clip-rule="evenodd" d="M34.9999 52.9187C35.3685 52.9187 35.7091 52.7235 35.8934 52.4066L50.6949 26.955C50.8792 26.6381 50.8792 26.2477 50.6949 25.9308C50.5107 25.6139 50.1701 25.4187 49.8015 25.4187H20.1982C19.8296 25.4187 19.489 25.6139 19.3047 25.9308C19.1204 26.2477 19.1204 26.6381 19.3047 26.955L34.1064 52.4066C34.2907 52.7235 34.6313 52.9187 34.9999 52.9187ZM21.9851 27.4671H48.0146L34.9999 49.8461L21.9851 27.4671Z" fill="#B7FF7A"/>
<mask id="mask1_45_707" style="mask-type:luminance" maskUnits="userSpaceOnUse" x="0" y="0" width="70" height="70">
<path d="M0 0H70V70H0V0Z" fill="white"/>
</mask>
<g mask="url(#mask1_45_707)">
<path fill-rule="evenodd" clip-rule="evenodd" d="M4.72097 52.4046C4.90395 52.7213 5.24211 52.9164 5.60807 52.9164H64.3927C64.7587 52.9164 65.0969 52.7213 65.2798 52.4046C65.4628 52.0879 65.4628 51.6978 65.2798 51.3811L35.8875 0.511478C35.7045 0.194798 35.3664 -0.000289917 35.0004 -0.000289917C34.6344 -0.000289917 34.2963 0.194798 34.1133 0.511478L4.72098 51.3811C4.538 51.6978 4.538 52.0879 4.72097 52.4046ZM7.38226 50.8693L12.819 41.46L35.0004 3.07031L62.6186 50.8693H7.38226Z" fill="#B7FF7A"/>
<path fill-rule="evenodd" clip-rule="evenodd" d="M34.4882 69.8619C34.8052 70.0451 35.1956 70.0451 35.5126 69.8619L64.9049 52.8746C65.2218 52.6914 65.4171 52.3529 65.4171 51.9866V18.012C65.4171 17.6456 65.2218 17.3071 64.9049 17.1239L35.5126 0.136642C35.1956 -0.046524 34.8052 -0.046524 34.4882 0.136642L5.0959 17.1239C4.77898 17.3071 4.58374 17.6456 4.58374 18.012V51.9866C4.58374 52.3529 4.77898 52.6914 5.0959 52.8746L34.4882 69.8619ZM6.6324 51.3946V18.604L35.0004 2.20868L63.3684 18.604V51.3946L35.0004 67.7899L6.6324 51.3946Z" fill="#B7FF7A"/>
</g>
</svg>
