<svg width="70" height="70" viewBox="0 0 70 70" fill="none" xmlns="http://www.w3.org/2000/svg">
<path d="M7.35505 70H59.8849C61.8287 69.9938 63.6906 69.2965 65.0627 68.0609C66.4347 66.8253 67.2051 65.1521 67.2051 63.4078V53.2539C68.0557 52.853 68.7666 52.2494 69.2596 51.5093C69.7525 50.7693 70.0084 49.9216 69.9992 49.0595V38.0699C70.0165 37.2012 69.7644 36.3452 69.271 35.5977C68.7776 34.8501 68.0624 34.2403 67.2051 33.8365V23.6826C67.2051 21.9342 66.4311 20.2574 65.0534 19.0212C63.6757 17.7849 61.8071 17.0903 59.8588 17.0903H48.2038L52.8258 1.46894C52.8766 1.29539 52.8827 1.11372 52.8434 0.937762C52.8042 0.761803 52.7208 0.596194 52.5995 0.453545C52.4752 0.307833 52.3141 0.19075 52.1295 0.111976C51.9448 0.0332012 51.7419 -0.00500196 51.5376 0.000524643L26.4172 0.0473888C26.1762 0.0537687 25.9419 0.119915 25.7402 0.238495C25.5385 0.357076 25.3774 0.523457 25.2746 0.719196C25.1718 0.914936 25.1315 1.13239 25.158 1.34744C25.1846 1.5625 25.277 1.76676 25.425 1.93758L29.7771 6.99891L25.364 10.0529C22.6425 11.924 20.4334 14.3284 18.9055 17.0825H7.35505C5.40587 17.0825 3.53641 17.7768 2.15732 19.0129C0.778229 20.2489 0.00230671 21.9257 0 23.6747V63.4078C0.00230671 65.1569 0.778229 66.8336 2.15732 68.0697C3.53641 69.3057 5.40587 70 7.35505 70ZM67.3879 49.0595C67.4488 49.6235 67.2588 50.1863 66.8594 50.6252C66.4599 51.0641 65.8834 51.3435 65.2554 51.4027H53.8355C51.527 51.4027 49.313 50.5798 47.6807 49.115C46.0483 47.6502 45.1313 45.6636 45.1313 43.592C45.1313 41.5205 46.0483 39.5338 47.6807 38.069C49.313 36.6042 51.527 35.7813 53.8355 35.7813H65.2554C65.8834 35.8405 66.4599 36.12 66.8594 36.5589C67.2588 36.9978 67.4488 37.5605 67.3879 38.1245V49.0595ZM26.9482 11.9118L32.3883 8.13927C32.5253 8.04573 32.6399 7.92833 32.7251 7.79413C32.8104 7.65992 32.8646 7.51165 32.8845 7.3582C32.9263 7.04973 32.8327 6.73875 32.6233 6.49121L29.0981 2.3906L49.8664 2.34373L44.5742 20.3552L41.0925 16.2624C40.8793 16.0169 40.5667 15.857 40.2226 15.8175C39.8786 15.778 39.5311 15.8621 39.2559 16.0515L29.8554 22.5031C25.5579 25.4738 22.6 29.7368 21.5255 34.5082C20.0972 32.0992 19.2993 29.4299 19.1922 26.7029C19.0851 23.9759 19.6717 21.2628 20.9075 18.7696C20.906 18.741 20.906 18.7123 20.9075 18.6837C22.2704 16.0153 24.3452 13.6895 26.9482 11.9118ZM2.57644 23.706C2.57875 22.5784 3.07956 21.4976 3.96894 20.701C4.85832 19.9044 6.06361 19.457 7.32023 19.457H17.7653C17.2662 20.768 16.9162 22.1209 16.7208 23.4951C16.3316 26.1332 16.5298 28.8144 17.3038 31.3832C18.0777 33.9521 19.4121 36.3576 21.2295 38.4604L21.3253 38.5698C21.4465 38.7132 21.6031 38.8295 21.7828 38.9095C21.9625 38.9894 22.1605 39.0309 22.3611 39.0306C22.4966 39.0277 22.6311 39.0093 22.7615 38.9759C23.0106 38.8958 23.227 38.75 23.3823 38.5577C23.5376 38.3654 23.6246 38.1355 23.6319 37.898C23.7352 35.2699 24.4839 32.6946 25.8245 30.3561C27.1651 28.0176 29.0646 25.9735 31.3873 24.3699L39.7608 18.5978L44.1129 23.6435C44.2615 23.8183 44.462 23.952 44.6913 24.0293C44.9207 24.1067 45.1697 24.1245 45.4098 24.0809C45.6373 24.0374 45.8481 23.9409 46.0207 23.801C46.1934 23.6611 46.322 23.4829 46.3934 23.2842L47.5162 19.4882H59.8849C61.1295 19.4964 62.3206 19.9431 63.2015 20.7321C64.0824 21.5211 64.5825 22.5892 64.5938 23.706V33.4381H53.8355C50.8344 33.4381 47.9563 34.5079 45.8342 36.4121C43.7122 38.3164 42.52 40.899 42.52 43.592C42.52 46.285 43.7122 48.8677 45.8342 50.7719C47.9563 52.6762 50.8344 53.7459 53.8355 53.7459H64.5938V63.4078C64.5916 64.534 64.0919 65.6136 63.2044 66.41C62.3169 67.2064 61.1139 67.6547 59.8588 67.6568H7.35505C6.09842 67.6568 4.89314 67.2094 4.00376 66.4128C3.11437 65.6161 2.61357 64.5354 2.61126 63.4078L2.57644 23.706ZM53.7832 39.4055C52.8704 39.4117 51.9799 39.6598 51.2238 40.1188C50.4676 40.5777 49.8795 41.227 49.5334 41.985C49.1872 42.743 49.0985 43.5759 49.2782 44.379C49.458 45.1821 49.8983 45.9197 50.5438 46.4989C51.1893 47.0781 52.0112 47.4733 52.9062 47.6346C53.8012 47.7959 54.7294 47.7163 55.5741 47.4056C56.4188 47.095 57.1423 46.5673 57.6538 45.8887C58.1653 45.2102 58.4418 44.4112 58.4487 43.592C58.4533 43.0437 58.3369 42.5 58.1062 41.9923C57.8756 41.4845 57.5352 41.0228 57.1048 40.6336C56.6743 40.2444 56.1623 39.9355 55.5982 39.7248C55.0341 39.514 54.4291 39.4055 53.8181 39.4055H53.7832ZM53.7832 45.3651C53.3836 45.3588 52.995 45.2462 52.6666 45.0416C52.3383 44.837 52.085 44.5496 51.9389 44.2157C51.7928 43.8818 51.7604 43.5165 51.8458 43.1661C51.9312 42.8157 52.1305 42.4959 52.4186 42.2473C52.7067 41.9986 53.0706 41.8323 53.4641 41.7693C53.8576 41.7063 54.2631 41.7496 54.6292 41.8936C54.9953 42.0376 55.3056 42.2759 55.5207 42.5782C55.7357 42.8806 55.846 43.2334 55.8374 43.592C55.826 44.0658 55.6083 44.5168 55.2308 44.8482C54.8533 45.1796 54.3462 45.3652 53.8181 45.3651H53.7832Z" fill="#B7FF7A"/>
</svg>
